:SAMPLES-PER-SECOND 30
:FULLY-SPECIFIED
:DEGREES
1117
root  70.0107 37.7243 -25.5847 33.757 0.427612 0.902145
RightUpLeg  -59.9582 -11.891 3.26765
RightLeg  28.3922 -6.27627 -3.89747
RightFoot  0.578357 0.242102 -2.27964
RightToes  0.00048216 0.542163 -0.142577
Spine  70.7114 -4.37143 5.1321
Spine1  8.50013 1.66189 -7.25527
HEad  -38.1569 -7.78125 3.26609
LeftShoulder1  5.37417 -27.4868 -9.87088
LeftArm  -90.889 -78.2738 27.0954
LeftForeArm  33.0342 -22.8994 -3.14112
LeftHand  -0.25398 0.0180481 5.50724
RightShoulder  1.21469 10.575 0.259332
RightArm  -87.5519 70.6929 -24.266
RightForeArm  -15.7446 15.366 3.08462
RightHand  -16.1285 30.372 -49.3282
LeftUpLeg  -62.7554 21.8359 -26.0532
LeftLeg  24.7018 0.89922 0.79208
LeftFoot  -1.03854 -0.953402 10.612
LeftToes  1.06245e-005 4.65856e-005 -8.18504e-006
1118
root  69.9715 37.7356 -25.7252 33.5084 0.550598 0.950714
RightUpLeg  -59.7176 -11.8637 3.2193
RightLeg  28.1065 -6.37387 -3.91117
RightFoot  0.655532 0.246013 -2.29704
RightToes  0.00048216 0.542163 -0.142577
Spine  70.5753 -4.30233 5.0969
Spine1  8.70434 1.63308 -7.0755
HEad  -38.276 -7.89754 3.39562
LeftShoulder1  5.34354 -27.5148 -9.74408
LeftArm  -91.5694 -78.3059 27.672
LeftForeArm  33.2287 -22.9326 -3.13922
LeftHand  -0.25398 0.0180481 5.50724
RightShoulder  1.1999 10.4259 0.242092
RightArm  -87.7103 70.8606 -24.7803
RightForeArm  -15.6532 15.6466 3.24726
RightHand  -15.9132 30.0437 -49.152
LeftUpLeg  -62.4995 21.8544 -26.0491
LeftLeg  24.2628 0.796557 0.731937
LeftFoot  -0.776476 -0.982225 10.6411
LeftToes  1.06245e-005 4.65856e-005 -8.18504e-006
1119
root  69.9156 37.7396 -25.87 33.2041 0.674683 0.991623
RightUpLeg  -59.4904 -11.9683 3.31496
RightLeg  27.8725 -6.29503 -3.83127
RightFoot  0.711851 0.260293 -2.41766
RightToes  0.00048216 0.542163 -0.142577
Spine  70.4746 -4.14555 5.07467
Spine1  8.99052 1.65627 -6.65843
HEad  -38.4693 -8.19333 3.36716
LeftShoulder1  5.37857 -27.4666 -9.89957
LeftArm  -92.9757 -78.465 29.3006
LeftForeArm  32.9735 -22.8629 -3.13472
LeftHand  -0.25398 0.0180481 5.50724
RightShoulder  1.12247 10.003 -0.101834
RightArm  -87.8425 71.1696 -25.3703
RightForeArm  -16.5591 15.836 3.45813
RightHand  -15.2567 29.1339 -48.4811
LeftUpLeg  -62.2603 21.9654 -26.056
LeftLeg  23.8962 0.648995 0.653279
LeftFoot  -0.490212 -1.006 10.5902
LeftToes  1.06245e-005 4.65856e-005 -8.18504e-006
1120
root  69.8499 37.7364 -26.0177 32.839 0.779053 1.0096
RightUpLeg  -59.2656 -12.0342 3.41545
RightLeg  27.7365 -6.2551 -3.78855
RightFoot  0.819154 0.277822 -2.55373
RightToes  0.00048216 0.542163 -0.142577
Spine  70.525 -4.13433 5.05633
Spine1  9.04962 1.63603 -6.5304
HEad  -38.5043 -8.372 3.42699
LeftShoulder1  5.4126 -27.332 -10.1072
LeftArm  -93.5316 -78.5912 30.3738
LeftForeArm  32.4011 -22.7253 -3.13058
LeftHand  -0.25398 0.0180481 5.50724
RightShoulder  1.08042 9.8829 -0.374062
RightArm  -87.6417 71.4181 -25.9023
RightForeArm  -17.2221 15.559 3.51959
RightHand  -14.6701 28.3306 -47.8343
LeftUpLeg  -62.0594 22.158 -26.0642
LeftLeg  23.6606 0.483662 0.570283
LeftFoot  -0.273686 -1.02847 10.5991
LeftToes  1.06245e-005 4.65856e-005 -8.18504e-006
1121
root  69.7797 37.7263 -26.169 32.4799 0.830811 1.06038
RightUpLeg  -59.114 -11.9815 3.39995
RightLeg  27.7291 -6.34121 -3.83605
RightFoot  0.964595 0.291686 -2.64262
RightToes  0.00048216 0.542163 -0.142577
Spine  70.6271 -4.27051 5.04905
Spine1  8.88715 1.58001 -6.81545
HEad  -38.3784 -8.37349 3.64655
LeftShoulder1  5.33893 -27.2831 -9.87508
LeftArm  -92.9492 -78.5898 29.7936
LeftForeArm  32.2956 -22.5233 -3.08042
LeftHand  -0.25398 0.0180481 5.50724
RightShoulder  1.10678 10.1428 -0.330319
RightArm  -87.0739 71.4853 -26.0252
RightForeArm  -17.0033 15.0689 3.45046
RightHand  -14.3845 27.9822 -47.4502
LeftUpLeg  -61.8913 22.2672 -26.0235
LeftLeg  23.5194 0.423025 0.539794
LeftFoot  -0.0674828 -1.06103 10.7196
LeftToes  1.06245e-005 4.65856e-005 -8.18504e-006
1122
root  69.702 37.7096 -26.3229 32.1261 0.835327 1.16734
RightUpLeg  -59.0422 -11.9366 3.35726
RightLeg  27.8312 -6.3859 -3.87658
RightFoot  1.07213 0.306915 -2.75267
RightToes  0.00048216 0.542163 -0.142577
Spine  70.6452 -4.32804 5.04781
Spine1  8.82635 1.56526 -7.01324
HEad  -38.3023 -8.32105 3.82178
LeftShoulder1  5.22503 -27.3801 -9.40581
LeftArm  -92.6627 -78.5418 28.7331
LeftForeArm  32.7404 -22.3121 -2.98795
LeftHand  -0.25398 0.0180481 5.50724
RightShoulder  1.13056 10.2341 -0.194109
RightArm  -86.6497 71.6256 -25.7963
RightForeArm  -16.779 14.9512 3.45127
RightHand  -14.2537 27.8074 -47.2905
LeftUpLeg  -61.7195 22.303 -25.9419
LeftLeg  23.4139 0.468569 0.560278
LeftFoot  0.192595 -1.0909 10.7559
LeftToes  1.06245e-005 4.65856e-005 -8.18504e-006
1123
root  69.6148 37.689 -26.4748 31.7101 0.839294 1.28549
RightUpLeg  -58.946 -11.9508 3.35602
RightLeg  27.9988 -6.3569 -3.88537
RightFoot  1.12813 0.328887 -2.93756
RightToes  0.00048216 0.542163 -0.142577
Spine  70.616 -4.27185 5.07274
Spine1  8.98687 1.59836 -6.87963
HEad  -38.3559 -8.29663 3.86064
LeftShoulder1  5.21137 -27.4813 -9.29407
LeftArm  -93.1707 -78.5642 28.4731
LeftForeArm  32.9073 -22.1743 -2.9264
LeftHand  -0.25398 0.0180481 5.50724
RightShoulder  1.10793 9.98201 -0.209965
RightArm  -86.6885 71.9665 -25.632
RightForeArm  -17.2123 15.2109 3.57017
RightHand  -14.2004 27.6333 -47.3582
LeftUpLeg  -61.5266 22.4312 -25.8817
LeftLeg  23.3542 0.467107 0.558764
LeftFoot  0.419185 -1.09993 10.6217
LeftToes  1.06245e-005 4.65856e-005 -8.18504e-006
1124
root  69.5242 37.669 -26.6221 31.219 0.853333 1.37428
RightUpLeg  -58.7481 -11.9133 3.32679
RightLeg  28.1678 -6.39798 -3.93434
RightFoot  1.18896 0.353951 -3.14734
RightToes  0.00048216 0.542163 -0.142577
Spine  70.6606 -4.29406 5.15342
Spine1  9.11573 1.61954 -6.7771
HEad  -38.4038 -8.30546 3.88036
LeftShoulder1  5.30605 -27.4682 -9.64005
LeftArm  -93.1698 -78.6538 28.45
LeftForeArm  32.3393 -22.095 -2.9313
LeftHand  -0.25398 0.0180481 5.50724
RightShoulder  1.09631 9.89912 -0.250395
RightArm  -86.7227 72.1833 -25.5323
RightForeArm  -17.4326 15.372 3.64092
RightHand  -14.198 27.5742 -47.4282
LeftUpLeg  -61.3202 22.6804 -25.8404
LeftLeg  23.3683 0.367121 0.511494
LeftFoot  0.560194 -1.10049 10.4928
LeftToes  1.06245e-005 4.65856e-005 -8.18504e-006
1125
root  69.4345 37.6549 -26.7668 30.7041 0.829407 1.43317
RightUpLeg  -58.4643 -11.8048 3.27664
RightLeg  28.2404 -6.47887 -3.9918
RightFoot  1.28214 0.377485 -3.33066
RightToes  0.00048216 0.542163 -0.142577
Spine  70.7608 -4.42168 5.25476
Spine1  9.06204 1.61653 -6.90383
HEad  -38.3427 -8.32698 3.87419
LeftShoulder1  5.43001 -27.388 -10.1333
LeftArm  -91.7889 -78.7057 27.6371
LeftForeArm  31.6248 -22.0026 -2.95093
LeftHand  -0.25398 0.0180481 5.50724
RightShoulder  1.15526 10.2299 0.0115603
RightArm  -86.2905 72.1556 -25.2793
RightForeArm  -16.5082 15.2791 3.59861
RightHand  -14.061 27.5559 -47.0435
LeftUpLeg  -61.0764 22.931 -25.7242
LeftLeg  23.3854 0.302974 0.481306
LeftFoot  0.733393 -1.10898 10.4121
LeftToes  1.06245e-005 4.65856e-005 -8.18504e-006
1126
root  69.3451 37.6531 -26.9094 30.1658 0.753906 1.45779
RightUpLeg  -58.0812 -11.7688 3.34295
RightLeg  28.129 -6.41683 -3.93933
RightFoot  1.39645 0.399532 -3.49077
RightToes  0.00048216 0.542163 -0.142577
Spine  70.7852 -4.46989 5.30063
Spine1  9.02915 1.60317 -6.90026
HEad  -38.1839 -8.29431 3.68943
LeftShoulder1  5.58535 -27.3067 -10.7407
LeftArm  -89.631 -78.6103 26.1323
LeftForeArm  31.4412 -21.9102 -2.94472
LeftHand  -0.25398 0.0180481 5.50724
RightShoulder  1.27111 10.524 0.745874
RightArm  -85.6076 72.3977 -25.0255
RightForeArm  -15.0322 15.222 3.62026
RightHand  -13.7345 27.4135 -46.2498
LeftUpLeg  -60.7081 23.1486 -25.4607
LeftLeg  23.2715 0.366834 0.510467
LeftFoot  0.996817 -1.11292 10.2111
LeftToes  1.06245e-005 4.65856e-005 -8.18504e-006
1127
root  69.2594 37.6723 -27.0428 29.5112 0.698059 1.41142
RightUpLeg  -57.4714 -11.898 3.58832
RightLeg  27.8067 -6.18539 -3.75983
RightFoot  1.55694 0.421982 -3.63558
RightToes  0.00048216 0.542163 -0.142577
Spine  70.6612 -4.47246 5.51916
Spine1  9.21958 1.77783 -6.88892
HEad  -37.9302 -8.49278 3.68329
LeftShoulder1  5.69646 -27.6027 -10.9462
LeftArm  -86.4887 -78.3036 22.8945
LeftForeArm  31.9723 -21.9293 -2.92249
LeftHand  -0.25398 0.0180481 5.50724
RightShoulder  1.4449 10.1586 2.5219
RightArm  -84.5102 73.219 -25.0425
RightForeArm  -14.3385 15.4694 3.93116
RightHand  -13.4517 27.2149 -45.6498
LeftUpLeg  -60.1184 23.4161 -25.0403
LeftLeg  23.0096 0.490296 0.565554
LeftFoot  1.2399 -1.10774 9.95284
LeftToes  1.06245e-005 4.65856e-005 -8.18504e-006
1128
root  69.1832 37.7191 -27.1593 28.6458 0.701477 1.26428
RightUpLeg  -56.5012 -12.1264 3.92764
RightLeg  27.2883 -5.88842 -3.52034
RightFoot  1.81898 0.449564 -3.78565
RightToes  0.00048216 0.542163 -0.142577
Spine  70.4499 -4.59338 6.03981
Spine1  9.55127 2.19218 -7.22688
HEad  -37.5745 -9.04206 4.14743
LeftShoulder1  5.76036 -28.2975 -10.7345
LeftArm  -81.3885 -77.8501 17.111
LeftForeArm  32.7393 -22.0988 -2.924
LeftHand  -0.25398 0.0180481 5.50724
RightShoulder  1.68176 9.43164 5.2186
RightArm  -81.5339 74.0756 -23.9124
RightForeArm  -14.4526 15.972 4.44039
RightHand  -13.3082 27.0452 -45.4286
LeftUpLeg  -59.2551 23.8005 -24.447
LeftLeg  22.7083 0.581665 0.603979
LeftFoot  1.44147 -1.11581 9.85596
LeftToes  1.06245e-005 4.65856e-005 -8.18504e-006
1129
root  69.1156 37.7916 -27.2614 27.5468 0.65802 1.06123
RightUpLeg  -55.1593 -12.3077 4.19722
RightLeg  26.6133 -5.57105 -3.25708
RightFoot  2.18683 0.486724 -3.97335
RightToes  0.00048216 0.542163 -0.142577
Spine  70.3718 -4.37802 5.44326
Spine1  9.83088 1.50634 -5.80319
HEad  -37.1624 -7.82655 3.14118
LeftShoulder1  6.70548 -26.7159 -15.1793
LeftArm  -75.7773 -77.7271 15.5338
LeftForeArm  31.3395 -22.2253 -3.0952
LeftHand  -0.25398 0.0180481 5.50724
RightShoulder  1.71107 10.6287 4.19648
RightArm  -74.9376 74.4158 -16.0934
RightForeArm  -13.2479 16.2432 4.42323
RightHand  -13.1163 26.8004 -45.1517
LeftUpLeg  -58.0839 24.3396 -23.6966
LeftLeg  22.3597 0.623179 0.618094
LeftFoot  1.72799 -1.12771 9.72832
LeftToes  1.06245e-005 4.65856e-005 -8.18504e-006
1130
root  69.0541 37.881 -27.3598 26.2292 0.432739 0.941559
RightUpLeg  -53.5201 -12.2933 4.15524
RightLeg  25.8766 -5.32523 -3.03407
RightFoot  2.60152 0.524304 -4.13814
RightToes  0.00048216 0.542163 -0.142577
Spine  69.8542 -4.13067 5.29204
Spine1  10.5026 1.48121 -5.2339
HEad  -36.8968 -7.74431 2.64647
LeftShoulder1  7.44367 -26.4802 -18.0451
LeftArm  -67.1449 -76.9872 9.32485
LeftForeArm  31.4403 -22.3946 -3.16221
LeftHand  -0.25398 0.0180481 5.50724
RightShoulder  1.90647 11.0482 5.3273
RightArm  -66.1638 74.1479 -7.98684
RightForeArm  -12.0095 16.0128 4.5524
RightHand  -12.8157 26.4444 -44.6741
LeftUpLeg  -56.5385 25.0435 -22.9324
LeftLeg  21.78 0.653881 0.623436
LeftFoot  2.09261 -1.10149 9.22362
LeftToes  1.06245e-005 4.65856e-005 -8.18504e-006
1131
root  69.0051 37.9833 -27.4605 24.6945 0.0604858 1.01363
RightUpLeg  -51.6186 -12.0095 3.62235
RightLeg  25.1652 -5.36185 -2.96678
RightFoot  3.01789 0.545963 -4.16632
RightToes  0.00048216 0.542163 -0.142577
Spine  69.0333 -3.73526 4.88346
Spine1  11.4338 1.31745 -4.452
HEad  -36.6695 -7.60858 1.88894
LeftShoulder1  8.2851 -26.1794 -21.3503
LeftArm  -57.8494 -75.523 2.85868
LeftForeArm  32.1919 -22.4485 -3.1683
LeftHand  -0.25398 0.0180481 5.50724
RightShoulder  2.12549 11.3693 6.66597
RightArm  -55.8616 73.5702 1.82439
RightForeArm  -10.2691 14.9128 4.63575
RightHand  -12.4479 25.9623 -44.1322
LeftUpLeg  -54.5664 25.7935 -22.2472
LeftLeg  20.9231 0.789887 0.668413
LeftFoot  2.41051 -1.05338 8.59589
LeftToes  1.06245e-005 4.65856e-005 -8.18504e-006
